{"glyphs":{":":{"x_min":0,"x_max":203,"ha":203,"o":"m 20 0 l 20 151 l 183 151 l 183 0 z m 20 348 l 20 499 l 183 499 l 183 348 z m 119 95 l 86 95 l 86 55 l 119 55 z m 119 441 l 86 441 l 86 405 l 119 405 z"},"$":{"x_min":0,"x_max":495,"ha":495,"o":"m 193 809 l 197 665 q 131 646 76 595 q 20 545 20 485 q 21 451 36 424 q 51 396 72 379 q 93 361 119 345 q 130 338 168 319 q 207 299 226 283 q 245 267 245 246 q 245 234 233 225 q 204 206 146 192 q 88 178 22 178 l 38 14 q 61 18 94 23 q 128 28 157 33 q 186 39 197 44 l 193 -81 l 323 -81 l 319 71 q 349 85 385 113 q 421 140 448 179 q 475 217 475 262 q 475 279 471 293 q 466 331 436 361 q 407 391 378 407 q 350 423 323 433 q 315 437 298 447 q 280 456 266 469 q 251 481 251 494 q 255 521 289 534 q 322 548 364 552 q 405 556 447 557 l 437 722 q 371 713 319 702 q 323 782 323 809 z m 241 765 l 274 764 l 275 638 l 278 636 q 325 647 385 654 l 386 619 q 314 615 224 586 q 134 558 133 490 q 133 460 163 438 q 193 416 259 382 q 324 348 356 321 q 389 294 389 259 q 389 219 358 185 q 327 152 271 128 l 271 -40 l 239 -40 l 238 114 l 237 116 q 157 94 88 85 l 85 118 q 157 123 220 143 q 283 163 320 193 q 357 223 357 257 q 357 284 326 305 q 295 326 231 359 q 167 391 134 419 q 100 447 99 482 q 99 512 109 536 q 119 560 149 583 q 179 606 241 628 z"},"?":{"x_min":0,"x_max":483,"ha":483,"o":"m 20 581 l 44 735 q 70 732 110 726 q 150 720 198 709 q 247 698 280 686 q 351 661 392 628 q 432 596 448 560 q 463 523 463 480 q 458 427 426 381 q 394 335 345 302 q 297 269 243 247 q 188 226 136 216 l 97 336 q 158 356 194 386 q 230 415 230 468 q 230 492 209 519 q 189 545 136 562 q 114 569 92 573 q 70 577 20 581 z m 111 151 l 280 151 l 280 0 l 111 0 z m 181 90 l 181 56 l 213 56 l 213 90 z m 159 307 l 169 275 q 264 314 315 358 q 366 403 366 457 q 366 533 295 583 q 224 634 93 665 l 89 633 q 201 604 266 562 q 332 519 332 459 q 332 427 309 399 q 286 372 250 351 q 213 330 159 307 z"},"'":{"x_min":0,"x_max":219,"ha":219,"o":"m 20 497 l 78 720 l 199 665 l 90 465 z m 142 649 l 111 662 l 48 513 l 78 501 z"},"a":{"x_min":0,"x_max":887,"ha":887,"o":"m 423 579 l 130 88 l 159 72 l 210 159 l 656 184 l 716 89 l 745 105 l 442 579 z m 20 71 q 78 168 129 253 q 179 338 231 426 q 283 513 313 563 q 343 613 424 744 l 435 744 q 478 680 529 601 q 580 522 640 430 q 699 338 756 251 q 812 165 867 83 l 669 -33 q 654 -10 642 11 q 630 32 612 63 q 594 95 580 120 l 276 102 q 258 65 240 27 q 222 -12 211 -35 z m 340 251 l 511 261 q 491 300 474 333 q 457 367 445 391 q 433 415 426 430 q 414 406 406 390 q 399 375 389 355 q 379 334 367 308 q 354 281 340 251 z m 231 193 l 432 532 l 637 215 z"},"L":{"x_min":0,"x_max":497,"ha":497,"o":"m 20 708 l 256 708 q 254 641 253 554 q 252 468 251 408 q 251 347 251 291 q 251 234 250 166 q 278 166 298 166 q 317 167 356 167 q 395 168 428 169 q 462 169 477 170 l 477 -17 q 430 -17 306 -13 q 182 -9 134 -8 q 85 -7 20 -7 q 21 21 21 59 q 22 96 22 129 q 22 162 23 213 q 23 264 23 337 q 23 493 20 708 z m 397 93 l 153 94 l 152 613 l 120 613 l 121 60 l 397 59 z"},"3":{"x_min":0,"x_max":521,"ha":521,"o":"m 474 572 q 478 552 478 537 q 478 502 458 469 q 438 435 405 409 q 373 383 340 374 l 340 368 q 409 349 455 314 q 501 279 501 219 q 501 146 446 97 q 391 48 307 14 q 289 6 247 -5 q 206 -16 148 -24 q 91 -32 26 -32 l 20 126 l 43 126 q 161 126 223 170 q 254 193 254 224 q 254 234 248 250 q 242 266 223 275 q 196 291 166 298 q 137 305 83 306 l 76 397 q 136 399 188 420 q 240 441 240 492 q 240 526 200 543 q 173 555 149 561 q 125 566 97 569 q 69 571 41 572 l 55 730 q 156 725 217 717 q 277 708 338 686 q 395 666 430 636 q 466 605 474 572 z m 366 201 q 366 160 316 129 q 267 98 199 83 q 132 67 86 67 l 88 31 q 241 47 320 92 q 399 136 399 203 q 399 278 314 319 q 269 342 200 353 l 200 355 q 292 376 335 413 q 378 449 379 506 q 379 556 344 590 q 310 623 250 642 q 190 661 103 670 l 99 638 q 194 628 270 601 q 345 574 347 507 q 347 474 325 451 q 303 427 268 412 q 233 397 198 388 q 162 379 107 368 l 111 330 q 133 330 173 326 q 212 322 256 310 q 300 298 333 271 q 366 243 366 201 z"},";":{"x_min":0,"x_max":243,"ha":243,"o":"m 20 -101 l 85 157 l 223 94 l 80 -133 z m 56 345 l 56 495 l 217 495 l 217 345 z"},"J":{"x_min":0,"x_max":412,"ha":412,"o":"m 155 716 l 392 716 q 390 672 389 639 q 388 606 387 569 q 387 531 386 487 q 385 443 384 419 q 386 372 386 295 q 386 190 351 108 q 313 27 261 -22 q 209 -70 126 -116 l 20 58 q 46 72 69 90 q 92 107 110 129 q 127 150 139 177 q 151 203 155 232 q 161 262 161 329 q 161 394 161 456 q 161 517 159 585 q 158 653 155 716 z m 137 28 l 155 1 q 210 48 253 120 q 296 191 296 262 l 295 618 l 264 618 l 265 252 q 265 217 244 172 q 224 127 193 87 q 163 48 137 28 z"},"V":{"x_min":0,"x_max":864,"ha":864,"o":"m 20 623 l 235 739 q 263 678 280 643 q 296 608 326 546 q 356 484 382 429 q 408 375 432 322 q 519 507 552 576 q 585 645 632 741 l 844 631 q 802 562 744 469 q 685 375 640 303 q 594 230 534 135 q 473 39 424 -39 l 412 -39 q 363 40 320 110 q 278 180 224 272 q 170 364 129 435 q 88 506 20 623 z m 167 579 l 424 109 l 712 596 l 683 611 l 425 175 l 196 593 z"},"\"":{"x_min":0,"x_max":380,"ha":380,"o":"m 20 494 l 71 720 l 191 673 l 93 465 z m 162 517 l 262 720 l 360 655 l 225 476 z m 51 511 l 81 500 l 135 652 l 103 663 z m 188 524 l 215 507 l 301 647 l 274 664 z"},"7":{"x_min":0,"x_max":608,"ha":608,"o":"m 577 713 l 588 697 q 522 535 503 487 q 483 440 447 350 q 411 260 366 144 q 321 28 299 -33 l 90 55 q 131 137 157 188 q 183 238 219 310 q 256 381 280 429 q 304 478 335 542 l 24 542 l 20 723 q 127 720 191 719 q 256 717 327 716 q 398 714 469 714 q 541 713 577 713 z m 108 644 l 109 612 l 445 611 l 221 115 l 251 102 l 494 642 z"},"S":{"x_min":0,"x_max":520,"ha":520,"o":"m 79 597 q 108 625 153 653 q 198 680 267 702 q 336 724 425 732 l 453 563 q 383 559 351 556 q 319 553 292 540 q 264 526 264 500 q 264 490 274 481 q 284 472 303 461 q 323 450 347 438 q 371 426 388 415 q 500 354 500 266 q 500 261 499 251 q 498 241 498 236 q 491 189 458 146 q 424 104 368 69 q 311 34 239 11 q 167 -11 79 -19 l 51 152 q 58 152 62 152 q 67 151 72 151 q 114 151 156 159 q 198 167 227 184 q 255 201 256 223 q 256 236 239 250 q 222 264 183 286 q 145 309 127 321 q 23 384 20 471 q 21 508 38 540 q 55 571 79 597 z m 377 626 l 377 627 l 372 659 q 335 651 294 637 q 252 624 216 604 q 179 583 154 552 q 129 521 129 480 q 129 443 161 415 q 193 387 254 354 q 316 322 346 300 q 377 278 377 251 q 375 224 356 200 q 338 176 306 156 q 275 137 232 121 q 188 104 137 91 l 142 59 l 136 92 l 143 57 q 229 80 285 106 q 341 132 373 167 q 404 202 410 247 q 410 286 378 314 q 345 343 282 378 q 219 413 191 433 q 163 453 163 479 q 163 511 189 540 q 215 569 264 592 q 312 614 377 626 z"},"Z":{"x_min":0,"x_max":696,"ha":696,"o":"m 24 -10 l 20 0 q 65 71 105 135 q 145 198 189 271 q 233 344 265 396 q 297 448 352 538 q 304 539 274 540 q 244 541 213 542 q 182 543 145 544 q 108 545 59 546 q 63 664 63 723 q 124 720 193 717 q 262 713 357 709 q 451 705 520 702 q 588 700 672 697 l 676 687 q 629 608 596 553 q 563 498 517 424 q 472 350 436 292 q 399 234 350 155 q 402 156 435 156 q 468 157 513 157 q 558 158 591 159 q 624 160 663 163 l 659 -20 q 555 -19 504 -18 q 453 -18 335 -15 q 217 -13 156 -12 q 94 -11 24 -10 z m 134 612 l 489 596 l 152 48 l 595 48 l 597 82 l 213 83 l 547 626 l 135 647 z"},"x":{"x_min":0,"x_max":791,"ha":791,"o":"m 404 508 q 438 549 477 595 q 516 641 527 654 q 538 667 604 750 l 766 601 q 723 556 697 530 q 670 503 653 486 q 635 469 598 432 q 561 395 539 372 l 771 118 l 599 -40 q 563 3 552 16 q 542 29 504 76 q 466 123 435 161 q 404 200 386 221 q 262 69 176 -42 l 20 110 l 253 360 q 229 385 205 412 q 180 440 129 497 q 79 555 44 593 l 215 750 q 244 714 267 685 q 290 656 314 625 q 338 593 360 564 q 383 536 404 508 z m 614 623 l 403 392 l 203 619 l 179 597 l 381 369 l 145 111 l 168 89 l 402 344 l 616 101 l 640 123 l 424 368 l 638 602 z"},")":{"x_min":0,"x_max":353,"ha":353,"o":"m 122 -71 l 27 38 q 50 59 70 80 q 89 101 112 140 q 134 179 149 238 q 164 296 164 372 q 164 438 146 494 q 129 549 104 589 q 79 628 56 653 q 33 678 20 687 l 122 799 q 156 777 192 740 q 227 703 259 650 q 292 598 312 529 q 333 461 333 382 q 333 297 312 222 q 292 148 259 90 q 227 33 190 -9 q 154 -50 122 -71 z m 97 39 l 122 11 q 155 51 189 110 q 223 168 245 234 q 267 300 267 357 q 267 407 259 449 q 251 492 233 536 q 216 580 189 624 q 162 669 124 717 l 101 689 q 139 648 168 594 q 198 541 214 482 q 231 423 231 365 q 231 324 220 276 q 208 229 189 184 q 169 139 146 103 q 123 66 97 39 z"},"&":{"x_min":0,"x_max":785,"ha":785,"o":"m 22 163 q 25 204 45 241 q 65 278 95 310 q 125 342 161 371 q 133 402 120 427 q 107 452 106 483 q 106 529 138 573 q 163 605 208 633 q 254 661 315 682 q 377 703 446 715 q 453 715 473 719 q 493 722 511 723 l 530 554 q 478 554 432 550 q 387 545 352 530 q 317 515 317 487 q 323 464 333 450 q 343 437 365 418 q 390 396 452 349 q 514 302 530 290 q 541 305 554 329 q 568 354 582 379 q 596 405 604 420 l 753 328 q 705 260 653 206 l 765 127 l 647 -27 q 605 -1 515 66 q 406 -20 253 -20 q 88 -20 39 74 q 23 106 20 151 q 22 157 22 163 z m 258 278 q 241 259 234 240 q 228 220 222 190 q 224 168 236 154 q 247 139 266 131 q 285 124 305 123 q 348 134 365 140 q 381 146 403 161 q 381 177 361 192 q 340 208 322 223 q 303 238 293 247 q 284 255 258 278 z m 448 650 q 379 637 327 620 q 275 603 239 572 q 203 540 203 490 q 205 449 244 393 l 244 389 q 103 248 99 160 q 99 107 145 73 q 191 40 254 39 q 394 39 520 156 q 574 118 641 78 l 658 105 q 606 140 543 179 q 575 213 604 248 q 633 282 659 319 l 631 336 q 584 272 515 198 q 436 255 374 307 q 312 358 275 406 q 238 453 236 493 q 236 537 292 569 q 349 600 453 616 z m 266 364 q 294 334 332 300 q 370 266 409 236 q 448 206 490 177 q 431 125 374 98 q 316 71 265 71 q 205 71 157 108 q 134 127 134 157 q 134 185 151 220 q 169 254 199 292 q 229 329 266 364 z"},"v":{"x_min":0,"x_max":864,"ha":864,"o":"m 20 623 l 235 739 q 263 678 280 643 q 296 608 326 546 q 356 484 382 429 q 408 375 432 322 q 519 507 552 576 q 585 645 632 741 l 844 631 q 802 562 744 469 q 685 375 640 303 q 594 230 534 135 q 473 39 424 -39 l 412 -39 q 363 40 320 110 q 278 180 224 272 q 170 364 129 435 q 88 506 20 623 z m 167 579 l 424 109 l 712 596 l 683 611 l 425 175 l 196 593 z"},"O":{"x_min":0,"x_max":870,"ha":870,"o":"m 437 574 q 390 571 352 544 q 314 517 293 469 q 271 422 268 362 q 268 290 288 240 q 309 189 344 164 q 379 139 423 138 q 429 140 437 140 q 526 148 563 212 q 600 276 602 362 q 602 467 560 521 q 519 574 447 574 z m 437 730 q 549 730 612 710 q 670 692 716 660 q 762 627 791 583 q 821 539 835 483 q 850 428 850 362 q 848 292 821 225 q 793 159 741 106 q 689 54 612 21 q 535 -11 437 -15 q 310 -15 216 31 q 122 77 71 155 q 21 233 20 325 q 22 339 22 362 q 32 451 71 521 q 110 592 169 638 q 227 684 296 707 q 366 730 437 730 z m 467 674 q 402 674 340 648 q 279 622 231 577 q 184 532 155 475 q 126 417 123 359 q 123 284 170 209 q 218 134 292 87 q 365 39 436 39 q 509 39 582 86 q 654 133 703 207 q 751 281 753 353 q 753 413 731 469 q 709 526 671 572 q 633 617 580 645 q 526 673 467 674 z m 465 639 q 517 639 563 615 q 610 591 646 551 q 681 510 701 461 q 720 412 720 361 q 717 296 675 229 q 633 162 569 118 q 504 74 441 73 q 376 73 309 115 q 241 157 197 222 q 153 287 153 354 q 155 411 180 462 q 206 513 251 553 q 295 594 351 616 q 407 639 465 639 z"},"(":{"x_min":0,"x_max":355,"ha":355,"o":"m 232 792 l 327 684 q 279 643 248 591 q 217 538 203 478 q 189 418 189 354 q 189 156 335 33 l 232 -78 q 131 -9 75 103 q 20 216 20 342 q 21 412 36 478 q 52 544 79 602 q 107 659 146 707 q 185 756 232 792 z m 227 715 q 160 631 123 532 q 86 434 86 331 q 88 164 229 10 l 251 33 q 124 183 124 321 q 124 537 251 691 z"},"C":{"x_min":0,"x_max":613,"ha":613,"o":"m 521 723 l 566 527 q 473 513 405 479 q 337 445 302 400 q 266 355 266 308 q 266 269 291 235 q 316 201 369 180 q 422 160 499 159 q 562 164 584 165 l 593 -18 q 537 -26 466 -26 q 342 -26 244 9 q 146 44 89 106 q 32 168 22 246 q 20 266 20 278 q 20 344 52 411 q 83 479 145 539 q 208 600 304 648 q 400 697 521 723 z m 462 596 l 455 628 q 389 607 332 579 q 275 550 229 510 q 182 470 154 416 q 126 362 126 295 q 128 232 152 186 q 176 140 221 109 q 267 79 331 63 q 396 48 480 48 l 509 48 l 507 80 q 495 80 488 80 q 481 80 473 79 q 396 79 336 94 q 276 109 234 139 q 158 192 158 296 q 159 380 204 440 q 249 500 314 535 q 379 570 462 596 z"},"W":{"x_min":0,"x_max":1121,"ha":1121,"o":"m 554 635 l 565 635 l 767 338 l 769 338 l 897 715 l 1101 633 q 1098 625 1054 532 q 1011 438 963 334 q 915 229 868 133 q 821 36 788 -27 l 777 -27 l 554 282 q 525 238 493 192 q 460 146 433 108 q 406 70 374 24 q 342 -23 323 -51 l 313 -51 q 283 24 237 131 q 190 238 153 325 q 115 412 81 495 q 46 579 20 647 l 234 725 q 250 675 264 633 q 277 590 295 531 q 313 472 335 405 q 356 338 362 320 q 390 367 419 416 q 449 465 462 486 q 475 507 501 550 q 528 593 554 635 z m 138 593 l 330 99 l 555 430 l 781 137 l 975 584 l 945 596 l 773 200 l 554 486 l 337 168 l 169 604 z"},"A":{"x_min":0,"x_max":887,"ha":887,"o":"m 423 579 l 130 88 l 159 72 l 210 159 l 656 184 l 716 89 l 745 105 l 442 579 z m 20 71 q 78 168 129 253 q 179 338 231 426 q 283 513 313 563 q 343 613 424 744 l 435 744 q 478 680 529 601 q 580 522 640 430 q 699 338 756 251 q 812 165 867 83 l 669 -33 q 654 -10 642 11 q 630 32 612 63 q 594 95 580 120 l 276 102 q 258 65 240 27 q 222 -12 211 -35 z m 340 251 l 511 261 q 491 300 474 333 q 457 367 445 391 q 433 415 426 430 q 414 406 406 390 q 399 375 389 355 q 379 334 367 308 q 354 281 340 251 z m 231 193 l 432 532 l 637 215 z"},"f":{"x_min":0,"x_max":487,"ha":487,"o":"m 20 707 q 44 708 118 709 q 192 711 302 715 q 413 719 463 721 l 467 556 q 451 556 418 555 q 386 554 363 553 q 340 552 308 552 q 276 551 243 550 l 243 393 q 279 395 345 398 q 412 401 446 403 l 450 244 q 311 244 243 246 l 245 -10 l 20 -10 z m 118 58 l 150 58 l 149 304 l 380 304 l 379 337 l 149 336 l 148 618 l 394 624 l 393 656 l 116 650 q 117 603 117 529 q 117 455 117 379 q 118 303 118 216 q 118 129 118 58 z"},"Q":{"x_min":0,"x_max":901,"ha":901,"o":"m 445 573 q 390 573 349 541 q 309 509 287 457 q 266 405 266 346 q 266 242 299 196 q 321 165 349 149 q 378 134 416 133 q 427 135 445 135 q 485 139 520 165 q 554 190 576 236 q 597 282 600 346 l 600 368 q 600 466 561 519 q 521 572 445 573 z m 445 729 q 557 729 647 692 q 738 654 792 575 q 846 496 846 375 q 846 316 825 253 q 803 190 762 140 q 720 90 666 70 l 666 62 l 881 57 l 860 -113 q 834 -107 729 -83 q 624 -58 580 -48 q 536 -38 484 -29 q 432 -20 392 -18 q 326 -14 263 5 q 200 24 145 65 q 90 105 55 176 q 20 246 20 346 q 20 399 38 455 q 56 510 92 560 q 127 610 175 645 q 231 683 298 705 q 365 728 445 729 z m 450 677 q 394 677 338 646 q 281 616 234 566 q 186 516 157 457 q 129 398 127 344 q 127 274 164 207 q 201 141 262 96 q 323 51 392 45 l 392 40 l 812 -37 l 815 -4 l 512 49 l 512 52 q 566 71 610 108 q 654 145 685 191 q 716 238 732 285 q 748 332 748 368 q 748 425 724 481 q 701 538 661 581 q 622 624 567 650 q 511 677 450 677 z m 462 641 q 528 641 585 600 q 643 558 677 495 q 712 432 712 375 q 710 326 688 273 q 667 221 629 177 q 591 133 544 105 q 496 78 443 74 q 377 74 312 111 q 247 148 205 209 q 164 270 164 334 q 166 386 190 441 q 215 496 256 541 q 298 585 352 613 q 406 641 462 641 z"},"w":{"x_min":0,"x_max":1121,"ha":1121,"o":"m 554 635 l 565 635 l 767 338 l 769 338 l 897 715 l 1101 633 q 1098 625 1054 532 q 1011 438 963 334 q 915 229 868 133 q 821 36 788 -27 l 777 -27 l 554 282 q 525 238 493 192 q 460 146 433 108 q 406 70 374 24 q 342 -23 323 -51 l 313 -51 q 283 24 237 131 q 190 238 153 325 q 115 412 81 495 q 46 579 20 647 l 234 725 q 250 675 264 633 q 277 590 295 531 q 313 472 335 405 q 356 338 362 320 q 390 367 419 416 q 449 465 462 486 q 475 507 501 550 q 528 593 554 635 z m 138 593 l 330 99 l 555 430 l 781 137 l 975 584 l 945 596 l 773 200 l 554 486 l 337 168 l 169 604 z"},"-":{"x_min":0,"x_max":384,"ha":384,"o":"m 25 282 l 20 438 q 46 438 160 437 q 274 437 361 436 l 364 294 q 337 294 250 291 q 164 289 98 286 q 33 283 25 282 z m 79 378 l 80 346 l 312 349 l 312 382 z"},"E":{"x_min":0,"x_max":496,"ha":496,"o":"m 401 46 l 401 79 l 152 81 l 151 329 l 355 329 l 355 361 l 151 362 l 150 617 l 388 625 l 387 658 l 118 649 l 120 49 z m 20 707 q 101 710 454 725 l 458 559 q 434 558 390 557 q 346 556 312 555 q 279 555 243 554 l 243 419 q 282 421 306 422 q 331 423 360 425 q 389 426 424 429 l 426 267 q 377 267 243 271 l 243 151 q 317 151 356 149 q 375 150 413 151 q 451 152 470 153 l 476 -20 l 20 -10 q 23 169 23 364 q 23 531 20 707 z"},"s":{"x_min":0,"x_max":520,"ha":520,"o":"m 79 597 q 108 625 153 653 q 198 680 267 702 q 336 724 425 732 l 453 563 q 383 559 351 556 q 319 553 292 540 q 264 526 264 500 q 264 490 274 481 q 284 472 303 461 q 323 450 347 438 q 371 426 388 415 q 500 354 500 266 q 500 261 499 251 q 498 241 498 236 q 491 189 458 146 q 424 104 368 69 q 311 34 239 11 q 167 -11 79 -19 l 51 152 q 58 152 62 152 q 67 151 72 151 q 114 151 156 159 q 198 167 227 184 q 255 201 256 223 q 256 236 239 250 q 222 264 183 286 q 145 309 127 321 q 23 384 20 471 q 21 508 38 540 q 55 571 79 597 z m 377 626 l 377 627 l 372 659 q 335 651 294 637 q 252 624 216 604 q 179 583 154 552 q 129 521 129 480 q 129 443 161 415 q 193 387 254 354 q 316 322 346 300 q 377 278 377 251 q 375 224 356 200 q 338 176 306 156 q 275 137 232 121 q 188 104 137 91 l 142 59 l 136 92 l 143 57 q 229 80 285 106 q 341 132 373 167 q 404 202 410 247 q 410 286 378 314 q 345 343 282 378 q 219 413 191 433 q 163 453 163 479 q 163 511 189 540 q 215 569 264 592 q 312 614 377 626 z"},"l":{"x_min":0,"x_max":497,"ha":497,"o":"m 20 708 l 256 708 q 254 641 253 554 q 252 468 251 408 q 251 347 251 291 q 251 234 250 166 q 278 166 298 166 q 317 167 356 167 q 395 168 428 169 q 462 169 477 170 l 477 -17 q 430 -17 306 -13 q 182 -9 134 -8 q 85 -7 20 -7 q 21 21 21 59 q 22 96 22 129 q 22 162 23 213 q 23 264 23 337 q 23 493 20 708 z m 397 93 l 153 94 l 152 613 l 120 613 l 121 60 l 397 59 z"},"8":{"x_min":0,"x_max":655,"ha":655,"o":"m 324 731 q 395 731 461 718 q 528 705 575 666 q 623 626 623 556 q 623 497 590 450 q 557 402 501 377 q 629 323 635 200 q 635 156 615 117 q 596 78 557 49 q 519 20 461 2 q 402 -16 326 -16 q 232 -16 172 1 q 112 19 80 46 q 47 74 35 106 q 22 139 20 175 q 20 218 36 255 q 51 292 79 320 q 107 349 146 369 q 87 393 58 439 q 30 485 28 532 q 28 585 56 624 q 84 662 131 686 q 177 710 227 720 q 278 731 324 731 z m 324 619 q 292 618 268 597 q 245 576 242 532 q 242 485 267 457 q 292 428 324 428 q 368 431 388 460 q 409 488 411 532 q 411 567 392 593 q 373 619 324 619 z m 324 311 q 281 307 258 276 q 235 246 235 200 q 235 151 262 125 q 289 98 324 98 q 368 98 392 127 q 416 157 419 200 q 419 230 407 256 q 395 282 375 297 q 354 311 330 311 z m 330 692 q 283 692 242 679 q 201 666 172 642 q 144 619 129 590 q 114 560 114 529 q 116 488 150 448 q 185 408 232 385 l 232 381 q 170 323 140 277 q 109 231 109 191 q 110 141 134 102 q 158 63 206 42 q 253 20 320 20 q 373 21 416 35 q 459 50 490 74 q 520 99 536 129 q 552 159 552 190 q 550 289 424 381 l 424 385 q 470 407 500 448 q 531 490 531 536 q 531 610 481 651 q 431 692 330 692 z m 379 372 q 410 350 441 323 q 472 295 495 261 q 519 228 519 193 q 519 154 491 122 q 463 89 417 71 q 372 53 319 53 q 279 54 248 63 q 217 72 193 90 q 169 108 156 133 q 144 158 143 192 q 143 224 167 257 q 190 290 228 327 q 266 365 273 378 l 272 397 q 147 474 147 533 q 148 561 170 591 q 192 622 234 641 q 275 660 331 660 q 386 660 424 646 q 462 633 480 606 q 499 579 499 540 q 499 452 378 398 z"},"e":{"x_min":0,"x_max":496,"ha":496,"o":"m 401 46 l 401 79 l 152 81 l 151 329 l 355 329 l 355 361 l 151 362 l 150 617 l 388 625 l 387 658 l 118 649 l 120 49 z m 20 707 q 101 710 454 725 l 458 559 q 434 558 390 557 q 346 556 312 555 q 279 555 243 554 l 243 419 q 282 421 306 422 q 331 423 360 425 q 389 426 424 429 l 426 267 q 377 267 243 271 l 243 151 q 317 151 356 149 q 375 150 413 151 q 451 152 470 153 l 476 -20 l 20 -10 q 23 169 23 364 q 23 531 20 707 z"},"b":{"x_min":0,"x_max":618,"ha":618,"o":"m 598 215 q 595 172 572 140 q 549 109 521 91 q 493 72 443 47 q 418 35 383 24 q 348 14 306 7 q 264 -1 225 -4 q 187 -8 161 -8 q 141 -8 91 -9 q 42 -10 20 -10 q 25 123 25 309 q 25 408 24 491 q 23 574 20 707 q 68 707 120 706 q 171 706 235 703 q 299 700 352 692 q 405 684 441 670 q 507 645 537 611 q 566 577 566 516 q 564 483 539 453 q 514 423 485 404 q 456 384 441 381 l 441 375 q 469 371 506 353 q 542 335 570 301 q 598 266 598 215 z m 233 309 q 312 308 342 278 q 373 249 373 215 q 373 197 358 174 q 343 151 311 133 q 279 116 233 113 z m 233 594 q 348 594 348 516 q 348 479 327 454 q 307 429 279 416 q 252 404 233 404 z m 109 665 l 111 37 l 229 36 q 300 36 361 60 q 421 83 457 124 q 493 164 495 212 q 495 262 458 298 q 420 334 357 353 l 357 358 q 474 427 474 523 q 472 571 436 604 q 399 636 335 652 q 271 668 187 668 q 150 668 109 665 z m 141 634 l 141 375 l 247 374 q 285 374 303 376 q 322 378 340 386 q 358 394 379 411 q 411 438 427 463 q 442 487 442 518 q 440 583 372 609 q 304 636 199 636 q 189 636 141 634 z m 143 342 l 142 70 q 179 67 215 67 q 273 67 321 78 q 368 90 400 116 q 436 146 450 165 q 465 183 465 214 q 465 258 424 288 q 383 317 320 330 q 257 343 186 343 q 157 343 143 342 z"},"m":{"x_min":0,"x_max":1115,"ha":1115,"o":"m 129 75 l 306 559 l 546 197 l 776 544 l 976 98 l 946 85 l 771 475 l 546 138 l 315 488 l 159 64 z m 299 727 q 274 668 242 589 q 209 509 169 411 q 130 313 91 214 q 51 116 20 33 q 53 21 90 7 q 126 -7 155 -17 q 185 -28 218 -41 q 235 14 247 52 q 259 89 274 141 q 290 193 307 253 q 325 312 326 318 q 369 247 385 221 q 401 194 420 163 q 440 132 469 87 q 498 42 525 0 l 536 0 q 562 37 588 74 q 614 112 648 164 q 683 216 703 248 q 724 279 753 322 q 766 287 783 242 q 799 198 819 146 q 838 95 857 47 q 875 -2 891 -41 l 1095 49 l 1028 197 l 796 711 l 785 711 l 550 330 l 309 727 z"},",":{"x_min":0,"x_max":257,"ha":257,"o":"m 20 -99 l 87 166 l 237 97 l 91 -131 z m 153 70 l 123 84 l 52 -77 l 81 -89 z"},"n":{"x_min":0,"x_max":795,"ha":795,"o":"m 60 720 l 70 726 q 91 710 189 638 q 287 565 344 522 q 402 479 463 433 q 524 388 573 351 q 573 414 569 610 q 571 648 571 718 l 775 714 q 771 653 764 547 q 758 440 754 359 q 750 277 745 188 q 740 100 734 -17 l 724 -21 q 681 10 640 39 q 600 68 522 127 q 444 186 391 227 q 337 269 223 356 q 223 302 223 265 q 224 228 224 188 q 225 148 225 101 q 225 53 225 -9 l 20 -1 q 25 90 30 178 q 34 265 39 357 q 44 449 49 523 q 53 597 60 720 z m 139 72 l 159 506 l 675 123 l 692 641 l 660 642 l 645 185 l 129 569 l 107 72 z"},"h":{"x_min":0,"x_max":767,"ha":767,"o":"m 20 706 q 23 583 24 500 q 25 418 25 319 q 25 263 25 222 q 24 180 24 146 q 23 111 23 77 q 23 43 23 -11 l 258 -11 q 256 82 255 139 q 254 196 254 262 l 517 282 q 517 181 515 134 q 515 46 513 -11 l 747 -11 q 747 48 746 116 q 745 185 745 250 q 744 314 743 379 q 744 433 745 473 q 745 513 745 547 q 746 582 746 616 q 746 650 747 706 l 513 706 q 514 685 515 643 q 516 601 516 574 q 516 548 516 516 q 517 484 517 453 l 254 433 q 254 524 255 585 q 255 646 258 706 z m 120 615 l 152 615 l 153 352 l 617 394 l 616 622 l 648 621 l 650 79 l 617 79 l 617 361 l 152 320 l 154 81 l 122 81 z"},"z":{"x_min":0,"x_max":696,"ha":696,"o":"m 24 -10 l 20 0 q 65 71 105 135 q 145 198 189 271 q 233 344 265 396 q 297 448 352 538 q 304 539 274 540 q 244 541 213 542 q 182 543 145 544 q 108 545 59 546 q 63 664 63 723 q 124 720 193 717 q 262 713 357 709 q 451 705 520 702 q 588 700 672 697 l 676 687 q 629 608 596 553 q 563 498 517 424 q 472 350 436 292 q 399 234 350 155 q 402 156 435 156 q 468 157 513 157 q 558 158 591 159 q 624 160 663 163 l 659 -20 q 555 -19 504 -18 q 453 -18 335 -15 q 217 -13 156 -12 q 94 -11 24 -10 z m 134 612 l 489 596 l 152 48 l 595 48 l 597 82 l 213 83 l 547 626 l 135 647 z"},"B":{"x_min":0,"x_max":618,"ha":618,"o":"m 598 215 q 595 172 572 140 q 549 109 521 91 q 493 72 443 47 q 418 35 383 24 q 348 14 306 7 q 264 -1 225 -4 q 187 -8 161 -8 q 141 -8 91 -9 q 42 -10 20 -10 q 25 123 25 309 q 25 408 24 491 q 23 574 20 707 q 68 707 120 706 q 171 706 235 703 q 299 700 352 692 q 405 684 441 670 q 507 645 537 611 q 566 577 566 516 q 564 483 539 453 q 514 423 485 404 q 456 384 441 381 l 441 375 q 469 371 506 353 q 542 335 570 301 q 598 266 598 215 z m 233 309 q 312 308 342 278 q 373 249 373 215 q 373 197 358 174 q 343 151 311 133 q 279 116 233 113 z m 233 594 q 348 594 348 516 q 348 479 327 454 q 307 429 279 416 q 252 404 233 404 z m 109 665 l 111 37 l 229 36 q 300 36 361 60 q 421 83 457 124 q 493 164 495 212 q 495 262 458 298 q 420 334 357 353 l 357 358 q 474 427 474 523 q 472 571 436 604 q 399 636 335 652 q 271 668 187 668 q 150 668 109 665 z m 141 634 l 141 375 l 247 374 q 285 374 303 376 q 322 378 340 386 q 358 394 379 411 q 411 438 427 463 q 442 487 442 518 q 440 583 372 609 q 304 636 199 636 q 189 636 141 634 z m 143 342 l 142 70 q 179 67 215 67 q 273 67 321 78 q 368 90 400 116 q 436 146 450 165 q 465 183 465 214 q 465 258 424 288 q 383 317 320 330 q 257 343 186 343 q 157 343 143 342 z"},"K":{"x_min":0,"x_max":717,"ha":717,"o":"m 253 320 l 249 320 q 249 286 247 268 q 248 230 249 201 q 250 172 251 136 q 253 101 254 54 q 255 6 255 -20 l 20 -20 q 20 19 21 98 q 22 177 23 217 q 23 257 24 318 q 25 378 25 460 q 25 515 24 551 q 24 586 23 629 q 22 672 20 715 l 255 715 q 253 633 251 546 q 249 459 249 385 l 253 385 q 332 486 521 721 l 688 574 l 476 355 q 504 324 533 294 q 561 264 586 238 q 610 212 643 177 q 676 142 697 119 l 519 -35 q 486 9 452 53 q 418 97 385 141 q 351 185 316 233 q 280 281 253 320 z m 120 618 l 118 66 l 150 67 l 152 618 z m 528 583 l 329 344 l 538 104 l 563 125 l 372 345 l 553 561 z"},"R":{"x_min":0,"x_max":721,"ha":721,"o":"m 701 106 l 517 -32 l 270 333 q 305 351 331 376 q 356 401 370 430 q 385 459 385 484 q 385 525 351 551 q 316 576 243 576 l 249 1 l 24 1 l 24 256 q 24 332 24 389 q 23 447 23 495 q 22 543 22 592 q 21 640 20 716 l 71 716 q 182 716 262 712 q 341 708 417 696 q 493 683 547 654 q 601 625 613 576 q 619 551 619 524 q 619 473 589 426 q 559 379 489 329 q 520 294 540 273 q 561 252 592 221 q 624 190 649 163 q 675 136 701 106 z m 152 90 l 151 635 q 289 634 383 609 q 477 585 486 529 q 488 515 488 509 q 488 469 458 427 q 427 385 364 335 l 542 93 l 568 114 l 409 330 q 524 424 524 511 q 524 557 490 592 q 457 629 370 649 q 284 669 171 669 q 136 669 119 668 l 119 90 z"},"T":{"x_min":0,"x_max":709,"ha":709,"o":"m 20 535 l 20 710 q 140 706 386 702 q 586 706 689 710 l 689 535 q 639 537 610 537 q 581 538 550 539 q 520 540 467 541 q 471 163 471 -1 l 239 -1 l 239 264 q 241 351 241 541 q 77 538 20 535 z m 81 642 l 81 609 l 339 609 l 339 87 l 372 88 l 371 609 l 629 608 l 630 642 z"},"P":{"x_min":0,"x_max":629,"ha":629,"o":"m 243 180 l 245 3 l 20 3 q 24 159 24 240 q 24 321 23 371 q 23 421 22 491 q 21 561 21 611 q 20 660 20 718 q 71 717 166 716 q 261 715 332 707 q 403 698 464 678 q 524 657 560 620 q 580 601 594 570 q 607 540 609 504 q 609 412 549 340 q 490 269 405 229 q 319 188 243 180 z m 243 576 l 245 323 q 261 323 295 340 q 328 357 354 388 q 381 419 381 461 q 381 499 362 523 q 343 548 312 561 q 280 573 243 576 z m 113 95 l 146 94 l 146 213 q 231 224 299 249 q 367 273 414 308 q 462 343 487 382 q 512 421 514 460 q 514 491 504 522 q 495 553 475 574 q 397 658 113 663 z m 146 629 q 237 628 321 612 q 406 596 449 549 q 479 516 479 471 q 479 444 468 417 q 457 391 435 369 q 411 344 377 323 q 343 303 303 286 q 263 270 223 260 q 184 250 144 245 z"},"t":{"x_min":0,"x_max":709,"ha":709,"o":"m 20 535 l 20 710 q 140 706 386 702 q 586 706 689 710 l 689 535 q 639 537 610 537 q 581 538 550 539 q 520 540 467 541 q 471 163 471 -1 l 239 -1 l 239 264 q 241 351 241 541 q 77 538 20 535 z m 81 642 l 81 609 l 339 609 l 339 87 l 372 88 l 371 609 l 629 608 l 630 642 z"},"M":{"x_min":0,"x_max":1115,"ha":1115,"o":"m 129 75 l 306 559 l 546 197 l 776 544 l 976 98 l 946 85 l 771 475 l 546 138 l 315 488 l 159 64 z m 299 727 q 274 668 242 589 q 209 509 169 411 q 130 313 91 214 q 51 116 20 33 q 53 21 90 7 q 126 -7 155 -17 q 185 -28 218 -41 q 235 14 247 52 q 259 89 274 141 q 290 193 307 253 q 325 312 326 318 q 369 247 385 221 q 401 194 420 163 q 440 132 469 87 q 498 42 525 0 l 536 0 q 562 37 588 74 q 614 112 648 164 q 683 216 703 248 q 724 279 753 322 q 766 287 783 242 q 799 198 819 146 q 838 95 857 47 q 875 -2 891 -41 l 1095 49 l 1028 197 l 796 711 l 785 711 l 550 330 l 309 727 z"},"g":{"x_min":0,"x_max":681,"ha":681,"o":"m 541 726 l 588 529 q 473 512 381 458 q 331 429 292 381 q 254 333 254 284 q 254 234 299 196 q 333 167 365 158 q 398 150 442 148 q 442 249 440 314 l 659 314 l 661 -3 q 553 -25 458 -25 q 382 -25 319 -17 q 256 -9 198 16 q 140 40 96 85 q 20 165 20 270 q 20 339 53 408 q 86 476 140 529 q 172 561 211 589 q 249 617 297 642 q 345 667 406 688 q 468 709 541 726 z m 471 586 l 463 616 q 409 598 360 573 q 311 549 268 518 q 226 487 190 451 q 118 379 118 301 q 118 261 138 219 q 157 178 196 137 q 294 40 421 40 q 456 40 493 46 q 530 51 567 63 l 567 228 l 535 228 l 535 86 q 491 76 436 72 q 305 72 212 165 q 150 239 150 301 q 150 365 213 428 q 264 480 328 519 q 391 558 471 586 z"},"j":{"x_min":0,"x_max":412,"ha":412,"o":"m 155 716 l 392 716 q 390 672 389 639 q 388 606 387 569 q 387 531 386 487 q 385 443 384 419 q 386 372 386 295 q 386 190 351 108 q 313 27 261 -22 q 209 -70 126 -116 l 20 58 q 46 72 69 90 q 92 107 110 129 q 127 150 139 177 q 151 203 155 232 q 161 262 161 329 q 161 394 161 456 q 161 517 159 585 q 158 653 155 716 z m 137 28 l 155 1 q 210 48 253 120 q 296 191 296 262 l 295 618 l 264 618 l 265 252 q 265 217 244 172 q 224 127 193 87 q 163 48 137 28 z"},"i":{"x_min":0,"x_max":275,"ha":275,"o":"m 20 706 q 21 641 21 526 q 22 411 22 312 q 22 231 21 138 q 21 44 20 -10 l 255 -10 q 251 244 249 372 q 250 415 250 456 q 251 498 252 539 q 253 581 254 623 q 254 665 255 706 z m 119 607 l 151 606 l 153 86 l 121 87 z"},"y":{"x_min":0,"x_max":778,"ha":778,"o":"m 386 458 l 394 458 q 417 527 466 584 q 515 641 575 678 q 635 716 695 731 l 758 523 q 570 476 514 309 q 508 292 504 279 q 500 266 497 252 q 494 239 494 226 q 494 173 492 141 q 493 116 494 91 q 495 65 496 42 q 497 20 498 0 l 261 0 q 262 27 265 78 q 267 129 267 153 q 267 252 251 305 q 222 395 164 447 q 106 499 20 523 l 99 731 q 181 705 236 666 q 291 627 320 588 q 349 549 365 510 q 381 472 386 458 z m 659 587 l 648 619 q 568 567 500 491 q 431 416 385 323 l 382 323 q 303 517 158 613 l 145 582 q 219 532 276 451 q 332 369 366 263 l 367 84 l 398 84 l 399 261 q 410 301 435 345 q 459 390 495 434 q 530 478 571 516 q 612 554 659 587 z"},".":{"x_min":0,"x_max":207,"ha":207,"o":"m 20 0 l 20 155 l 187 155 l 187 0 z m 120 61 l 120 93 l 88 93 l 88 61 z"},"p":{"x_min":0,"x_max":629,"ha":629,"o":"m 243 180 l 245 3 l 20 3 q 24 159 24 240 q 24 321 23 371 q 23 421 22 491 q 21 561 21 611 q 20 660 20 718 q 71 717 166 716 q 261 715 332 707 q 403 698 464 678 q 524 657 560 620 q 580 601 594 570 q 607 540 609 504 q 609 412 549 340 q 490 269 405 229 q 319 188 243 180 z m 243 576 l 245 323 q 261 323 295 340 q 328 357 354 388 q 381 419 381 461 q 381 499 362 523 q 343 548 312 561 q 280 573 243 576 z m 113 95 l 146 94 l 146 213 q 231 224 299 249 q 367 273 414 308 q 462 343 487 382 q 512 421 514 460 q 514 491 504 522 q 495 553 475 574 q 397 658 113 663 z m 146 629 q 237 628 321 612 q 406 596 449 549 q 479 516 479 471 q 479 444 468 417 q 457 391 435 369 q 411 344 377 323 q 343 303 303 286 q 263 270 223 260 q 184 250 144 245 z"},"X":{"x_min":0,"x_max":791,"ha":791,"o":"m 404 508 q 438 549 477 595 q 516 641 527 654 q 538 667 604 750 l 766 601 q 723 556 697 530 q 670 503 653 486 q 635 469 598 432 q 561 395 539 372 l 771 118 l 599 -40 q 563 3 552 16 q 542 29 504 76 q 466 123 435 161 q 404 200 386 221 q 262 69 176 -42 l 20 110 l 253 360 q 229 385 205 412 q 180 440 129 497 q 79 555 44 593 l 215 750 q 244 714 267 685 q 290 656 314 625 q 338 593 360 564 q 383 536 404 508 z m 614 623 l 403 392 l 203 619 l 179 597 l 381 369 l 145 111 l 168 89 l 402 344 l 616 101 l 640 123 l 424 368 l 638 602 z"},"Y":{"x_min":0,"x_max":778,"ha":778,"o":"m 386 458 l 394 458 q 417 527 466 584 q 515 641 575 678 q 635 716 695 731 l 758 523 q 570 476 514 309 q 508 292 504 279 q 500 266 497 252 q 494 239 494 226 q 494 173 492 141 q 493 116 494 91 q 495 65 496 42 q 497 20 498 0 l 261 0 q 262 27 265 78 q 267 129 267 153 q 267 252 251 305 q 222 395 164 447 q 106 499 20 523 l 99 731 q 181 705 236 666 q 291 627 320 588 q 349 549 365 510 q 381 472 386 458 z m 659 587 l 648 619 q 568 567 500 491 q 431 416 385 323 l 382 323 q 303 517 158 613 l 145 582 q 219 532 276 451 q 332 369 366 263 l 367 84 l 398 84 l 399 261 q 410 301 435 345 q 459 390 495 434 q 530 478 571 516 q 612 554 659 587 z"},"c":{"x_min":0,"x_max":613,"ha":613,"o":"m 521 723 l 566 527 q 473 513 405 479 q 337 445 302 400 q 266 355 266 308 q 266 269 291 235 q 316 201 369 180 q 422 160 499 159 q 562 164 584 165 l 593 -18 q 537 -26 466 -26 q 342 -26 244 9 q 146 44 89 106 q 32 168 22 246 q 20 266 20 278 q 20 344 52 411 q 83 479 145 539 q 208 600 304 648 q 400 697 521 723 z m 462 596 l 455 628 q 389 607 332 579 q 275 550 229 510 q 182 470 154 416 q 126 362 126 295 q 128 232 152 186 q 176 140 221 109 q 267 79 331 63 q 396 48 480 48 l 509 48 l 507 80 q 495 80 488 80 q 481 80 473 79 q 396 79 336 94 q 276 109 234 139 q 158 192 158 296 q 159 380 204 440 q 249 500 314 535 q 379 570 462 596 z"},"!":{"x_min":0,"x_max":284,"ha":284,"o":"m 20 724 l 264 714 q 258 658 247 592 q 236 525 226 459 q 215 394 207 336 q 199 278 197 246 q 107 242 63 236 q 53 326 45 414 q 37 501 29 596 q 22 691 20 724 z m 43 1 l 43 152 l 212 152 l 212 1 z m 116 93 l 116 55 l 148 55 l 148 93 z m 120 629 q 118 574 116 492 q 115 409 115 299 l 146 300 q 146 328 147 375 q 148 423 149 464 q 150 505 152 547 q 153 588 155 629 z"},"/":{"x_min":0,"x_max":546,"ha":546,"o":"m 111 -18 l 20 47 q 79 142 118 206 q 157 269 230 388 q 303 507 362 602 q 421 697 430 713 l 526 654 q 478 584 432 513 q 386 442 346 377 q 306 312 230 183 q 154 55 111 -18 z m 443 662 l 70 58 l 98 40 l 472 644 z"},"6":{"x_min":0,"x_max":648,"ha":648,"o":"m 384 754 l 488 599 q 478 593 453 578 q 428 563 407 549 q 386 534 362 512 q 339 490 317 459 q 369 458 423 445 q 478 431 524 403 q 571 375 599 333 q 628 291 628 234 q 628 176 601 129 q 575 83 530 50 q 484 17 428 0 q 372 -17 317 -17 q 253 -17 200 -2 q 146 13 108 42 q 70 71 48 115 q 26 160 22 219 q 22 227 20 232 q 26 306 50 374 q 74 441 114 504 q 155 566 207 619 q 259 671 317 712 q 354 740 384 754 z m 270 339 q 247 290 247 219 q 247 170 271 146 q 295 122 325 120 q 341 120 360 129 q 379 139 392 161 q 406 183 406 219 q 406 263 375 300 q 345 336 270 339 z m 189 399 q 221 396 275 385 q 329 374 378 354 q 427 334 462 302 q 498 270 499 229 q 499 191 471 151 q 443 111 402 85 q 360 58 323 58 q 285 58 246 84 q 207 110 181 157 q 156 204 156 258 q 158 304 163 332 q 169 360 189 399 z m 370 651 q 328 617 295 586 q 263 556 230 518 q 198 479 169 433 q 123 359 123 255 q 123 235 124 225 q 127 177 156 129 q 186 82 231 52 q 276 22 322 22 q 358 22 396 42 q 434 61 465 92 q 496 123 514 159 q 532 196 532 232 q 532 261 517 286 q 502 312 477 333 q 452 354 421 371 q 396 385 356 397 q 317 409 277 417 q 236 425 212 429 l 210 433 q 289 542 389 622 z"},"r":{"x_min":0,"x_max":721,"ha":721,"o":"m 701 106 l 517 -32 l 270 333 q 305 351 331 376 q 356 401 370 430 q 385 459 385 484 q 385 525 351 551 q 316 576 243 576 l 249 1 l 24 1 l 24 256 q 24 332 24 389 q 23 447 23 495 q 22 543 22 592 q 21 640 20 716 l 71 716 q 182 716 262 712 q 341 708 417 696 q 493 683 547 654 q 601 625 613 576 q 619 551 619 524 q 619 473 589 426 q 559 379 489 329 q 520 294 540 273 q 561 252 592 221 q 624 190 649 163 q 675 136 701 106 z m 152 90 l 151 635 q 289 634 383 609 q 477 585 486 529 q 488 515 488 509 q 488 469 458 427 q 427 385 364 335 l 542 93 l 568 114 l 409 330 q 524 424 524 511 q 524 557 490 592 q 457 629 370 649 q 284 669 171 669 q 136 669 119 668 l 119 90 z"},"2":{"x_min":0,"x_max":602,"ha":602,"o":"m 65 568 l 98 735 q 163 729 227 717 q 291 705 354 681 q 418 656 468 616 q 517 577 538 521 q 548 496 548 456 q 548 424 544 408 q 530 345 492 296 q 454 248 413 218 q 373 188 360 179 l 360 169 l 582 183 l 582 -6 q 493 -2 410 0 q 327 1 239 1 q 151 2 35 2 l 20 37 q 47 62 108 116 q 169 171 212 217 q 255 264 284 314 q 313 364 313 408 q 313 493 238 528 q 163 564 65 568 z m 151 663 l 145 632 q 198 621 260 596 q 323 571 372 530 q 420 489 421 436 q 421 384 385 329 q 350 274 302 228 q 255 182 204 141 q 153 100 150 97 l 150 60 l 497 74 l 497 106 l 200 95 l 200 97 q 214 108 262 147 q 311 186 354 232 q 396 279 425 331 q 454 384 454 436 q 454 497 411 542 q 367 587 301 615 q 234 643 151 663 z"},"9":{"x_min":0,"x_max":639,"ha":639,"o":"m 262 -33 l 161 120 q 209 148 250 177 q 291 207 324 252 q 269 252 215 266 q 162 279 117 308 q 72 336 46 380 q 20 423 20 480 q 20 550 65 609 q 111 669 183 703 q 255 737 328 737 q 440 735 505 697 q 570 659 594 603 q 619 547 619 487 q 619 358 539 234 q 459 109 328 8 q 294 -18 262 -33 z m 379 371 q 402 420 402 493 q 402 544 381 570 q 359 595 323 596 q 295 596 269 571 q 243 545 243 493 q 243 467 255 439 q 266 412 297 392 q 328 372 379 371 z m 456 321 q 316 325 233 366 q 149 407 146 491 q 146 518 162 547 q 179 577 205 600 q 232 624 263 638 q 295 652 322 652 q 360 652 400 628 q 439 604 465 560 q 490 516 490 462 q 488 423 482 391 q 476 358 456 321 z m 275 69 q 317 103 350 134 q 384 165 416 203 q 448 241 476 287 q 523 362 523 469 q 523 486 522 495 q 520 531 502 566 q 485 600 456 628 q 427 656 393 672 q 358 688 323 688 q 274 688 226 657 q 177 627 145 581 q 113 534 113 488 q 113 445 145 399 q 176 354 220 329 q 245 315 284 308 q 324 300 373 297 q 421 293 433 291 l 435 287 q 359 180 257 98 z"}," ":{"x_min":0,"x_max":355,"ha":355,"o":""},"I":{"x_min":0,"x_max":275,"ha":275,"o":"m 20 706 q 21 641 21 526 q 22 411 22 312 q 22 231 21 138 q 21 44 20 -10 l 255 -10 q 251 244 249 372 q 250 415 250 456 q 251 498 252 539 q 253 581 254 623 q 254 665 255 706 z m 119 607 l 151 606 l 153 86 l 121 87 z"},"H":{"x_min":0,"x_max":767,"ha":767,"o":"m 20 706 q 23 583 24 500 q 25 418 25 319 q 25 263 25 222 q 24 180 24 146 q 23 111 23 77 q 23 43 23 -11 l 258 -11 q 256 82 255 139 q 254 196 254 262 l 517 282 q 517 181 515 134 q 515 46 513 -11 l 747 -11 q 747 48 746 116 q 745 185 745 250 q 744 314 743 379 q 744 433 745 473 q 745 513 745 547 q 746 582 746 616 q 746 650 747 706 l 513 706 q 514 685 515 643 q 516 601 516 574 q 516 548 516 516 q 517 484 517 453 l 254 433 q 254 524 255 585 q 255 646 258 706 z m 120 615 l 152 615 l 153 352 l 617 394 l 616 622 l 648 621 l 650 79 l 617 79 l 617 361 l 152 320 l 154 81 l 122 81 z"},"4":{"x_min":0,"x_max":703,"ha":703,"o":"m 375 254 l 235 254 q 262 291 289 324 q 315 358 330 379 q 346 400 373 441 l 375 441 z m 20 203 q 81 280 129 340 q 177 400 229 465 q 280 530 348 615 q 416 700 450 744 l 571 716 l 571 256 l 683 260 l 678 110 l 571 114 l 573 1 l 365 1 q 366 19 367 51 q 369 84 369 114 l 53 114 z m 458 82 l 491 83 l 490 165 l 624 165 l 624 198 l 490 198 l 490 661 l 457 672 l 83 199 l 99 165 l 458 166 z m 458 198 l 458 621 l 125 198 z"},"D":{"x_min":0,"x_max":743,"ha":743,"o":"m 20 -44 q 21 22 22 73 q 22 124 23 175 q 24 226 24 261 q 25 295 25 365 q 25 417 23 521 q 21 625 21 677 q 346 677 483 645 q 546 629 601 597 q 656 564 690 514 q 723 463 723 398 q 723 332 698 272 q 672 212 626 163 q 581 114 524 79 q 468 43 404 20 q 364 5 321 -6 q 278 -17 227 -25 q 175 -34 127 -38 q 80 -42 20 -44 z m 248 515 q 334 515 386 496 q 438 477 460 441 q 483 406 483 355 q 483 299 448 253 q 412 206 357 177 q 302 147 248 139 z m 122 606 l 119 23 q 224 27 316 56 q 408 84 478 133 q 548 182 588 248 q 628 314 631 391 q 631 478 551 533 q 490 576 405 592 q 320 608 209 608 q 178 608 122 606 z m 154 574 l 152 58 q 246 63 329 93 q 411 123 471 169 q 532 216 564 272 q 597 328 597 383 q 597 420 581 455 q 566 487 529 510 q 492 533 442 547 q 393 562 334 568 q 275 575 208 575 q 172 575 154 574 z"},"0":{"x_min":0,"x_max":802,"ha":802,"o":"m 403 533 q 465 533 507 493 q 550 453 550 364 q 550 314 533 272 q 517 230 484 206 q 450 181 403 180 q 368 180 334 196 q 300 211 276 253 q 252 294 252 364 q 254 408 267 440 q 280 472 302 493 q 323 513 349 523 q 375 532 403 533 z m 403 696 q 564 696 656 626 q 716 580 749 516 q 782 452 782 364 q 781 294 756 232 q 731 170 682 121 q 634 73 562 45 q 491 17 403 17 q 281 17 195 58 q 108 98 64 172 q 20 246 20 343 q 21 348 21 353 q 21 357 21 364 q 26 444 60 507 q 94 570 148 612 q 202 653 268 675 q 333 696 403 696 z m 405 600 q 334 600 277 567 q 219 534 186 479 q 153 424 152 361 q 152 291 184 234 q 216 176 274 144 q 331 112 403 112 q 461 112 518 146 q 575 180 611 237 q 647 294 647 360 q 647 402 633 445 q 619 487 590 522 q 562 557 514 578 q 467 600 405 600 z m 407 633 q 357 633 305 614 q 254 595 211 559 q 168 522 143 471 q 117 419 117 356 q 117 306 137 256 q 156 207 194 166 q 232 125 285 101 q 338 77 405 77 q 454 77 503 100 q 552 122 592 160 q 631 199 655 250 q 679 301 679 357 q 679 443 641 506 q 603 568 540 601 q 477 633 407 633 z"},"F":{"x_min":0,"x_max":487,"ha":487,"o":"m 20 707 q 44 708 118 709 q 192 711 302 715 q 413 719 463 721 l 467 556 q 451 556 418 555 q 386 554 363 553 q 340 552 308 552 q 276 551 243 550 l 243 393 q 279 395 345 398 q 412 401 446 403 l 450 244 q 311 244 243 246 l 245 -10 l 20 -10 z m 118 58 l 150 58 l 149 304 l 380 304 l 379 337 l 149 336 l 148 618 l 394 624 l 393 656 l 116 650 q 117 603 117 529 q 117 455 117 379 q 118 303 118 216 q 118 129 118 58 z"},"k":{"x_min":0,"x_max":717,"ha":717,"o":"m 253 320 l 249 320 q 249 286 247 268 q 248 230 249 201 q 250 172 251 136 q 253 101 254 54 q 255 6 255 -20 l 20 -20 q 20 19 21 98 q 22 177 23 217 q 23 257 24 318 q 25 378 25 460 q 25 515 24 551 q 24 586 23 629 q 22 672 20 715 l 255 715 q 253 633 251 546 q 249 459 249 385 l 253 385 q 332 486 521 721 l 688 574 l 476 355 q 504 324 533 294 q 561 264 586 238 q 610 212 643 177 q 676 142 697 119 l 519 -35 q 486 9 452 53 q 418 97 385 141 q 351 185 316 233 q 280 281 253 320 z m 120 618 l 118 66 l 150 67 l 152 618 z m 528 583 l 329 344 l 538 104 l 563 125 l 372 345 l 553 561 z"},"u":{"x_min":0,"x_max":750,"ha":750,"o":"m 24 714 l 259 714 q 253 624 251 510 q 253 436 254 393 q 256 351 259 308 q 266 213 305 185 q 345 156 389 156 q 414 156 438 168 q 462 180 480 209 q 498 239 501 283 q 501 297 502 347 q 503 396 503 441 q 503 465 502 549 q 500 633 499 730 l 730 730 l 730 465 q 730 401 727 350 q 723 298 711 249 q 700 199 675 152 q 649 105 610 69 q 584 46 551 29 q 517 12 477 2 q 436 -8 389 -11 l 368 -11 q 318 -11 265 0 q 211 12 161 44 q 110 76 75 135 q 41 194 32 283 q 30 318 27 349 q 25 380 23 431 q 21 481 20 512 q 24 618 24 714 z m 120 636 q 116 558 116 475 q 116 415 119 363 q 123 312 130 269 q 137 227 148 196 q 173 122 231 84 q 290 47 385 47 q 458 50 509 73 q 561 97 590 141 q 620 186 627 251 q 638 360 638 465 q 638 539 634 643 l 601 644 q 602 609 603 573 q 604 538 604 527 q 604 516 604 477 q 604 352 593 264 q 584 195 554 155 q 525 116 484 101 q 443 85 392 84 q 327 84 266 114 q 206 144 188 195 q 174 235 167 277 q 159 319 156 361 q 153 403 153 455 q 153 507 155 636 z"},"U":{"x_min":0,"x_max":750,"ha":750,"o":"m 24 714 l 259 714 q 253 624 251 510 q 253 436 254 393 q 256 351 259 308 q 266 213 305 185 q 345 156 389 156 q 414 156 438 168 q 462 180 480 209 q 498 239 501 283 q 501 297 502 347 q 503 396 503 441 q 503 465 502 549 q 500 633 499 730 l 730 730 l 730 465 q 730 401 727 350 q 723 298 711 249 q 700 199 675 152 q 649 105 610 69 q 584 46 551 29 q 517 12 477 2 q 436 -8 389 -11 l 368 -11 q 318 -11 265 0 q 211 12 161 44 q 110 76 75 135 q 41 194 32 283 q 30 318 27 349 q 25 380 23 431 q 21 481 20 512 q 24 618 24 714 z m 120 636 q 116 558 116 475 q 116 415 119 363 q 123 312 130 269 q 137 227 148 196 q 173 122 231 84 q 290 47 385 47 q 458 50 509 73 q 561 97 590 141 q 620 186 627 251 q 638 360 638 465 q 638 539 634 643 l 601 644 q 602 609 603 573 q 604 538 604 527 q 604 516 604 477 q 604 352 593 264 q 584 195 554 155 q 525 116 484 101 q 443 85 392 84 q 327 84 266 114 q 206 144 188 195 q 174 235 167 277 q 159 319 156 361 q 153 403 153 455 q 153 507 155 636 z"},"o":{"x_min":0,"x_max":870,"ha":870,"o":"m 437 574 q 390 571 352 544 q 314 517 293 469 q 271 422 268 362 q 268 290 288 240 q 309 189 344 164 q 379 139 423 138 q 429 140 437 140 q 526 148 563 212 q 600 276 602 362 q 602 467 560 521 q 519 574 447 574 z m 437 730 q 549 730 612 710 q 670 692 716 660 q 762 627 791 583 q 821 539 835 483 q 850 428 850 362 q 848 292 821 225 q 793 159 741 106 q 689 54 612 21 q 535 -11 437 -15 q 310 -15 216 31 q 122 77 71 155 q 21 233 20 325 q 22 339 22 362 q 32 451 71 521 q 110 592 169 638 q 227 684 296 707 q 366 730 437 730 z m 467 674 q 402 674 340 648 q 279 622 231 577 q 184 532 155 475 q 126 417 123 359 q 123 284 170 209 q 218 134 292 87 q 365 39 436 39 q 509 39 582 86 q 654 133 703 207 q 751 281 753 353 q 753 413 731 469 q 709 526 671 572 q 633 617 580 645 q 526 673 467 674 z m 465 639 q 517 639 563 615 q 610 591 646 551 q 681 510 701 461 q 720 412 720 361 q 717 296 675 229 q 633 162 569 118 q 504 74 441 73 q 376 73 309 115 q 241 157 197 222 q 153 287 153 354 q 155 411 180 462 q 206 513 251 553 q 295 594 351 616 q 407 639 465 639 z"},"N":{"x_min":0,"x_max":795,"ha":795,"o":"m 60 720 l 70 726 q 91 710 189 638 q 287 565 344 522 q 402 479 463 433 q 524 388 573 351 q 573 414 569 610 q 571 648 571 718 l 775 714 q 771 653 764 547 q 758 440 754 359 q 750 277 745 188 q 740 100 734 -17 l 724 -21 q 681 10 640 39 q 600 68 522 127 q 444 186 391 227 q 337 269 223 356 q 223 302 223 265 q 224 228 224 188 q 225 148 225 101 q 225 53 225 -9 l 20 -1 q 25 90 30 178 q 34 265 39 357 q 44 449 49 523 q 53 597 60 720 z m 139 72 l 159 506 l 675 123 l 692 641 l 660 642 l 645 185 l 129 569 l 107 72 z"},"G":{"x_min":0,"x_max":681,"ha":681,"o":"m 541 726 l 588 529 q 473 512 381 458 q 331 429 292 381 q 254 333 254 284 q 254 234 299 196 q 333 167 365 158 q 398 150 442 148 q 442 249 440 314 l 659 314 l 661 -3 q 553 -25 458 -25 q 382 -25 319 -17 q 256 -9 198 16 q 140 40 96 85 q 20 165 20 270 q 20 339 53 408 q 86 476 140 529 q 172 561 211 589 q 249 617 297 642 q 345 667 406 688 q 468 709 541 726 z m 471 586 l 463 616 q 409 598 360 573 q 311 549 268 518 q 226 487 190 451 q 118 379 118 301 q 118 261 138 219 q 157 178 196 137 q 294 40 421 40 q 456 40 493 46 q 530 51 567 63 l 567 228 l 535 228 l 535 86 q 491 76 436 72 q 305 72 212 165 q 150 239 150 301 q 150 365 213 428 q 264 480 328 519 q 391 558 471 586 z"},"q":{"x_min":0,"x_max":901,"ha":901,"o":"m 445 573 q 390 573 349 541 q 309 509 287 457 q 266 405 266 346 q 266 242 299 196 q 321 165 349 149 q 378 134 416 133 q 427 135 445 135 q 485 139 520 165 q 554 190 576 236 q 597 282 600 346 l 600 368 q 600 466 561 519 q 521 572 445 573 z m 445 729 q 557 729 647 692 q 738 654 792 575 q 846 496 846 375 q 846 316 825 253 q 803 190 762 140 q 720 90 666 70 l 666 62 l 881 57 l 860 -113 q 834 -107 729 -83 q 624 -58 580 -48 q 536 -38 484 -29 q 432 -20 392 -18 q 326 -14 263 5 q 200 24 145 65 q 90 105 55 176 q 20 246 20 346 q 20 399 38 455 q 56 510 92 560 q 127 610 175 645 q 231 683 298 705 q 365 728 445 729 z m 450 677 q 394 677 338 646 q 281 616 234 566 q 186 516 157 457 q 129 398 127 344 q 127 274 164 207 q 201 141 262 96 q 323 51 392 45 l 392 40 l 812 -37 l 815 -4 l 512 49 l 512 52 q 566 71 610 108 q 654 145 685 191 q 716 238 732 285 q 748 332 748 368 q 748 425 724 481 q 701 538 661 581 q 622 624 567 650 q 511 677 450 677 z m 462 641 q 528 641 585 600 q 643 558 677 495 q 712 432 712 375 q 710 326 688 273 q 667 221 629 177 q 591 133 544 105 q 496 78 443 74 q 377 74 312 111 q 247 148 205 209 q 164 270 164 334 q 166 386 190 441 q 215 496 256 541 q 298 585 352 613 q 406 641 462 641 z"},"d":{"x_min":0,"x_max":743,"ha":743,"o":"m 20 -44 q 21 22 22 73 q 22 124 23 175 q 24 226 24 261 q 25 295 25 365 q 25 417 23 521 q 21 625 21 677 q 346 677 483 645 q 546 629 601 597 q 656 564 690 514 q 723 463 723 398 q 723 332 698 272 q 672 212 626 163 q 581 114 524 79 q 468 43 404 20 q 364 5 321 -6 q 278 -17 227 -25 q 175 -34 127 -38 q 80 -42 20 -44 z m 248 515 q 334 515 386 496 q 438 477 460 441 q 483 406 483 355 q 483 299 448 253 q 412 206 357 177 q 302 147 248 139 z m 122 606 l 119 23 q 224 27 316 56 q 408 84 478 133 q 548 182 588 248 q 628 314 631 391 q 631 478 551 533 q 490 576 405 592 q 320 608 209 608 q 178 608 122 606 z m 154 574 l 152 58 q 246 63 329 93 q 411 123 471 169 q 532 216 564 272 q 597 328 597 383 q 597 420 581 455 q 566 487 529 510 q 492 533 442 547 q 393 562 334 568 q 275 575 208 575 q 172 575 154 574 z"},"1":{"x_min":0,"x_max":432,"ha":432,"o":"m 20 573 q 88 605 175 645 q 261 684 306 705 q 351 726 392 745 l 412 731 q 411 661 410 626 q 410 592 408 530 q 407 468 406 423 q 405 377 404 305 q 405 246 407 186 q 408 125 408 63 q 408 20 410 0 l 179 0 q 181 94 181 233 q 183 309 183 493 q 147 481 71 443 q 62 469 47 505 q 33 541 20 573 z m 116 523 l 277 595 l 276 108 l 308 108 l 309 646 l 104 553 z"},"5":{"x_min":0,"x_max":535,"ha":535,"o":"m 43 341 l 88 714 q 274 717 505 730 l 507 547 l 241 559 l 228 486 q 301 481 365 462 q 429 443 472 399 q 515 355 515 285 q 515 252 499 216 q 483 180 448 143 q 412 106 362 75 q 303 38 216 11 q 130 -16 47 -24 l 20 142 q 86 146 122 156 q 157 166 207 186 q 229 194 247 214 q 264 234 264 258 q 263 270 258 282 q 252 294 240 303 q 228 312 207 317 q 175 328 140 333 q 105 338 43 341 z m 444 661 l 152 652 l 122 409 q 198 396 254 379 q 310 362 347 333 q 384 304 385 262 q 385 229 354 194 q 322 159 256 128 q 190 98 94 78 l 101 46 q 199 65 271 97 q 344 129 381 170 q 419 211 419 258 q 418 333 350 372 q 281 412 158 437 l 182 619 l 444 627 z"}}}
